#!OML:ASF G:\JayActor3\Patient Classification 1\Patient 1\Session 5\male.ASF
:FULLY-SPECIFIED
:DEGREES
523
root -28.3338 16.4725 -6.56799 858.939 -92.2619 -864.024
lowerback 1.12634 -1.53508 -1.24044
upperback 2.21485 -2.06142 -1.07655
thorax 1.64191 -1.05247 -0.41559
lowerneck -11.3036 0.269135 3.3379
upperneck 12.7716 -0.229156 -0.26815
head 5.71606 0.00835549 -0.650488
rclavicle 7.05142e-015 5.1684e-015
rhumerus -39.8338 -15.6293 -81.5524
rradius 19.2738
rwrist 13.2474
rhand -17.412 -4.82036
rfingers 7.12502
rthumb 8.83782 -34.6153
lclavicle 7.05142e-015 5.1684e-015
lhumerus -20.8189 -7.73436 90.7369
lradius 31.8372
lwrist 12.3909
lhand -18.3084 13.0995
lfingers 7.12502
lthumb 7.97272 42.9291
rfemur -28.8461 7.68578 17.6638
rtibia 29.9585
rfoot -11.2898 -16.5759
rtoes 5.32394
lfemur 27.3237 8.56501 -18.0128
ltibia 11.7674
lfoot -9.72646 2.52181
ltoes -21.1518
524
root -28.4957 16.4917 -6.59435 859.925 -92.3042 -865.04
lowerback 1.08299 -1.52068 -1.20896
upperback 2.23704 -2.04123 -1.06406
thorax 1.6883 -1.04217 -0.422078
lowerneck -11.2606 0.251864 3.30431
upperneck 12.5954 -0.243561 -0.249912
head 5.65313 0.000110475 -0.639821
rclavicle 7.0192e-015 1.98785e-016
rhumerus -39.6339 -15.903 -81.3448
rradius 18.8844
rwrist 14.0469
rhand -17.2386 -4.86953
rfingers 7.12502
rthumb 9.0051 -34.6573
lclavicle 7.0192e-015 1.98785e-016
lhumerus -21.053 -6.52787 90.6151
lradius 30.5733
lwrist 11.7053
lhand -18.4661 13.175
lfingers 7.12502
lthumb 7.82048 43.0104
rfemur -28.7836 7.37512 17.9287
rtibia 30.9043
rfoot -10.6506 -16.231
rtoes 6.09227
lfemur 26.1205 8.86844 -17.621
ltibia 14.7654
lfoot -9.20747 2.47107
ltoes -21.2921
525
root -28.6542 16.5128 -6.62177 859.546 -92.4036 -864.652
lowerback 1.01664 -1.50542 -1.26607
upperback 2.25152 -2.01933 -1.07667
thorax 1.7419 -1.03231 -0.405305
lowerneck -11.2337 0.234183 3.29162
upperneck 12.4343 -0.261347 -0.243403
head 5.59766 -0.00953436 -0.636586
rclavicle -2.73577e-014 -1.31198e-014
rhumerus -39.3957 -16.1907 -81.1472
rradius 18.5152
rwrist 14.8307
rhand -17.0497 -4.90456
rfingers 7.12502
rthumb 9.18735 -34.6844
lclavicle -2.73577e-014 -1.31198e-014
lhumerus -21.2776 -5.19524 90.4172
lradius 29.2591
lwrist 10.964
lhand -18.6707 13.2912
lfingers 7.12502
lthumb 7.623 43.1338
rfemur -28.709 7.08365 18.1056
rtibia 31.772
rfoot -10.1755 -15.9001
rtoes 7.01976
lfemur 24.7658 9.28007 -17.2695
ltibia 17.8859
lfoot -8.44944 2.44694
ltoes -21.0757
526
root -28.81 16.5355 -6.65027 858.678 -92.5699 -863.744
lowerback 0.936756 -1.49748 -1.3977
upperback 2.25072 -2.00661 -1.10844
thorax 1.78937 -1.02808 -0.366674
lowerneck -11.214 0.213922 3.28563
upperneck 12.3017 -0.285506 -0.231915
head 5.55233 -0.0214884 -0.633481
rclavicle -7.87063e-015 -7.95139e-015
rhumerus -39.1565 -16.4483 -80.9788
rradius 18.2068
rwrist 15.5258
rhand -16.8534 -4.93326
rfingers 7.12502
rthumb 9.37682 -34.7047
lclavicle -7.87063e-015 -7.95139e-015
lhumerus -21.5158 -3.73548 90.1409
lradius 27.9137
lwrist 10.152
lhand -18.9098 13.4677
lfingers 7.12502
lthumb 7.39218 43.3185
rfemur -28.602 6.81396 18.2075
rtibia 32.5572
rfoot -9.88636 -15.6273
rtoes 8.07013
lfemur 23.3059 9.75213 -16.9504
ltibia 21.0647
lfoot -7.45285 2.47583
ltoes -20.5729
527
root -28.9638 16.559 -6.6792 858.185 -92.7834 -863.206
lowerback 0.869168 -1.49791 -1.559
upperback 2.23965 -2.00508 -1.14616
thorax 1.82027 -1.02985 -0.317072
lowerneck -11.2055 0.187375 3.27917
upperneck 12.1973 -0.319689 -0.216549
head 5.5176 -0.0379211 -0.629972
rclavicle 1.51441e-014 -6.55989e-015
rhumerus -38.9187 -16.6071 -80.8734
rradius 17.9809
rwrist 16.0354
rhand -16.6685 -4.96279
rfingers 7.12502
rthumb 9.55524 -34.7261
lclavicle 1.51441e-014 -6.55989e-015
lhumerus -21.7742 -2.14569 89.7879
lradius 26.5562
lwrist 9.24646
lhand -19.1663 13.6842
lfingers 7.12502
lthumb 7.14464 43.5436
rfemur -28.4265 6.55865 18.2798
rtibia 33.2551
rfoot -9.76282 -15.4104
rtoes 9.10649
lfemur 21.8026 10.2284 -16.6441
ltibia 24.2507
lfoot -6.23549 2.58567
ltoes -19.9324
528
root -29.1154 16.584 -6.70756 858.956 -93.0089 -863.947
lowerback 0.843654 -1.50741 -1.67837
upperback 2.22 -2.01675 -1.17229
thorax 1.81779 -1.03738 -0.277687
lowerneck -11.2166 0.152019 3.25962
upperneck 12.128 -0.366534 -0.190278
head 5.49702 -0.0601037 -0.62204
rclavicle 5.50113e-015 1.13307e-014
rhumerus -38.6924 -16.6276 -80.8448
rradius 17.8572
rwrist 16.3233
rhand -16.4952 -4.99728
rfingers 7.12502
rthumb 9.72236 -34.7529
lclavicle 5.50113e-015 1.13307e-014
lhumerus -22.0578 -0.416117 89.3552
lradius 25.2078
lwrist 8.22104
lhand -19.4 13.9566
lfingers 7.12502
lthumb 6.91908 43.8235
rfemur -28.1497 6.30978 18.3879
rtibia 33.8282
rfoot -9.69822 -15.2749
rtoes 9.97128
lfemur 20.2837 10.6555 -16.3102
ltibia 27.4323
lfoot -4.8572 2.77581
ltoes -19.1461
529
root -29.2652 16.6107 -6.73457 861.41 -93.2102 -866.407
lowerback 0.878261 -1.5273 -1.69251
upperback 2.1948 -2.04426 -1.17273
thorax 1.7732 -1.05092 -0.268894
lowerneck -11.209 0.109415 3.22904
upperneck 12.0635 -0.42158 -0.158792
head 5.47467 -0.0864957 -0.611315
rclavicle 2.68126e-015 3.97569e-015
rhumerus -38.4844 -16.4713 -80.91
rradius 17.8463
rwrist 16.3625
rhand -16.33 -5.05939
rfingers 7.12502
rthumb 9.88183 -34.8075
lclavicle 2.68126e-015 3.97569e-015
lhumerus -22.3835 1.45339 88.8347
lradius 23.8917
lwrist 7.07399
lhand -19.6223 14.2699
lfingers 7.12502
lthumb 6.70443 44.1438
rfemur -27.7428 6.06006 18.5935
rtibia 34.2509
rfoot -9.64223 -15.2238
rtoes 10.604
lfemur 18.7779 10.9926 -15.9114
ltibia 30.5949
lfoot -3.38806 3.04638
ltoes -18.1825
530
root -29.4126 16.6386 -6.76014 865.441 -93.3836 -870.479
lowerback 0.972792 -1.55428 -1.58164
upperback 2.1672 -2.08297 -1.14455
thorax 1.68911 -1.06794 -0.298674
lowerneck -11.194 0.0568781 3.19129
upperneck 12.0003 -0.488919 -0.125227
head 5.45136 -0.119108 -0.599721
rclavicle 7.34028e-015 -7.15625e-015
rhumerus -38.2889 -16.1242 -81.0819
rradius 17.9529
rwrist 16.1415
rhand -16.1934 -5.13789
rfingers 7.12502
rthumb 10.0135 -34.8797
lclavicle 7.34028e-015 -7.15625e-015
lhumerus -22.7448 3.43437 88.224
lradius 22.617
lwrist 5.83513
lhand -19.8658 14.5921
lfingers 7.12502
lthumb 6.46936 44.4733
rfemur -27.2135 5.80522 18.9134
rtibia 34.5139
rfoot -9.56974 -15.2542
rtoes 10.9983
lfemur 17.2794 11.222 -15.446
ltibia 33.7254
lfoot -1.87736 3.41709
ltoes -16.939
531
root -29.5573 16.6674 -6.78443 870.508 -93.5423 -875.604
lowerback 1.10142 -1.5801 -1.36222
upperback 2.14057 -2.12055 -1.09411
thorax 1.58362 -1.08282 -0.365055
lowerneck -11.1683 -0.00483846 3.14188
upperneck 11.9169 -0.567605 -0.0793736
head 5.41985 -0.157105 -0.583156
rclavicle 1.52855e-014 6.16232e-015
rhumerus -38.1007 -15.5985 -81.36
rradius 18.1769
rwrist 15.6659
rhand -16.1037 -5.22176
rfingers 7.12502
rthumb 10.1002 -34.9594
lclavicle 1.52855e-014 6.16232e-015
lhumerus -23.1319 5.48471 87.53
lradius 21.3888
lwrist 4.56658
lhand -20.1912 14.8823
lfingers 7.12502
lthumb 6.15521 44.7729
rfemur -26.6008 5.55311 19.3248
rtibia 34.634
rfoot -9.47745 -15.3473
rtoes 11.235
lfemur 15.7693 11.3516 -14.946
ltibia 36.8013
lfoot -0.386397 3.92872
ltoes -15.3842
532
root -29.6989 16.6962 -6.80855 876.157 -93.7004 -881.304
lowerback 1.23051 -1.60089 -1.06908
upperback 2.1153 -2.15045 -1.02534
thorax 1.47707 -1.09307 -0.453712
lowerneck -11.124 -0.0785497 3.08697
upperneck 11.7985 -0.660723 -0.0293855
head 5.3742 -0.202439 -0.565325
rclavicle -4.99136e-015 -3.97569e-016
rhumerus -37.9118 -14.9134 -81.7357
rradius 18.5078
rwrist 14.9695
rhand -16.0756 -5.29893
rfingers 7.12502
rthumb 10.1272 -35.0352
lclavicle -4.99136e-015 -3.97569e-016
lhumerus -23.5346 7.59663 86.7507
lradius 20.2063
lwrist 3.29025
lhand -20.6404 15.0942
lfingers 7.12502
lthumb 5.72158 44.997
rfemur -25.9583 5.33056 19.8029
rtibia 34.6439
rfoot -9.39702 -15.4904
rtoes 11.3843
lfemur 14.2207 11.4101 -14.4293
ltibia 39.8001
lfoot 0.967743 4.64851
ltoes -13.7204
